<?xml version="1.0" standalone="no"?>
<!DOCTYPE svg PUBLIC "-//W3C//DTD SVG 20010904//EN"
 "http://www.w3.org/TR/2001/REC-SVG-20010904/DTD/svg10.dtd">
<svg version="1.0" xmlns="http://www.w3.org/2000/svg"
 width="460.000000pt" height="460.000000pt" viewBox="0 0 460.000000 460.000000"
 preserveAspectRatio="xMidYMid meet">
<metadata>
Created by potrace 1.11, written by Peter Selinger 2001-2013
</metadata>
<g transform="translate(0.000000,460.000000) scale(0.100000,-0.100000)"
fill="#000000" stroke="none">
<path d="M0 2300 l0 -2300 2300 0 2300 0 0 2300 0 2300 -2300 0 -2300 0 0
-2300z m3133 1453 c-2 -21 -18 -108 -33 -193 -16 -85 -31 -177 -35 -204 -4
-27 -9 -55 -12 -62 -4 -12 -93 -14 -523 -14 -405 0 -519 -3 -523 -12 -2 -7
-10 -47 -17 -88 -6 -41 -25 -145 -41 -231 -16 -86 -29 -164 -29 -173 0 -15 45
-16 520 -16 286 0 520 -2 520 -4 0 -2 -13 -75 -29 -163 -16 -87 -32 -180 -36
-208 -3 -27 -11 -71 -17 -97 l-10 -48 -521 -2 -520 -3 -23 -130 c-12 -71 -31
-184 -43 -250 -11 -66 -21 -121 -21 -122 0 -2 234 -3 520 -3 286 0 520 -2 520
-5 0 -7 -47 -271 -71 -400 l-21 -110 -774 3 c-527 1 -774 6 -774 13 0 5 9 56
20 112 10 56 33 181 50 277 34 196 57 321 71 395 5 28 25 142 44 255 19 113
46 264 60 335 13 72 38 209 55 305 70 395 93 523 121 675 16 88 29 170 29 183
l0 22 774 0 775 0 -6 -37z"/>
</g>
</svg>
